<?xml version="1.0" encoding="UTF-8"?>
<!DOCTYPE svg PUBLIC "-//W3C//DTD SVG 1.1//EN" "http://www.w3.org/Graphics/SVG/1.1/DTD/svg11.dtd">
<svg xmlns="http://www.w3.org/2000/svg" version="1.1" width="396px" height="50px" style="shape-rendering:geometricPrecision; text-rendering:geometricPrecision; image-rendering:optimizeQuality; fill-rule:evenodd; clip-rule:evenodd" xmlns:xlink="http://www.w3.org/1999/xlink">
<g><path style="opacity:0.612" fill="#a5caab" d="M 39.5,6.5 C 40.1667,6.5 40.5,6.83333 40.5,7.5C 40.8333,8.16667 41.1667,8.83333 41.5,9.5C 28.883,8.53846 16.2164,8.20513 3.5,8.5C 3.5,8.16667 3.5,7.83333 3.5,7.5C 15.3217,6.50492 27.3217,6.17159 39.5,6.5 Z"/></g>
<g><path style="opacity:0.858" fill="#b1efcd" d="M 3.5,8.5 C 16.2164,8.20513 28.883,8.53846 41.5,9.5C 41.5,10.5 41.5,11.5 41.5,12.5C 36.6367,12.1805 31.97,12.5139 27.5,13.5C 26.8333,13.5 26.5,13.8333 26.5,14.5C 25.1667,14.5 24.5,15.1667 24.5,16.5C 23.8826,16.6107 23.3826,16.944 23,17.5C 22.3333,20.1667 22.3333,22.8333 23,25.5C 23.3826,26.056 23.8826,26.3893 24.5,26.5C 24.8333,26.5 25.1667,26.5 25.5,26.5C 25.5,27.1667 25.8333,27.5 26.5,27.5C 31.5,28.1667 36.5,28.8333 41.5,29.5C 40.8045,33.2315 40.1378,37.0648 39.5,41C 27.8381,41.4999 16.1714,41.6665 4.5,41.5C 3.88258,41.3893 3.38258,41.056 3,40.5C 2.50017,30.172 2.33351,19.8387 2.5,9.5C 2.5,8.83333 2.83333,8.5 3.5,8.5 Z"/></g>
<g><path style="opacity:0.983" fill="#fefdfd" d="M 62.5,13.5 C 66.6969,17.1703 67.0302,21.0036 63.5,25C 66.2868,27.1672 67.1201,30.0006 66,33.5C 64.6811,35.4875 62.8477,36.6541 60.5,37C 56.1794,37.499 51.8461,37.6657 47.5,37.5C 47.5,29.1667 47.5,20.8333 47.5,12.5C 52.5624,12.2743 57.5624,12.6076 62.5,13.5 Z M 54.5,19.5 C 55.5676,18.5655 56.901,18.2322 58.5,18.5C 58.5,19.5 58.5,20.5 58.5,21.5C 57.1266,21.6567 55.7932,21.49 54.5,21C 55.7383,20.31 55.7383,19.81 54.5,19.5 Z M 54.5,28.5 C 56.2637,27.2878 57.9303,27.6212 59.5,29.5C 58.1311,31.124 56.4645,31.624 54.5,31C 55.7736,30.0228 55.7736,29.1894 54.5,28.5 Z"/></g>
<g><path style="opacity:0.994" fill="#f6f3f1" d="M 67.5,12.5 C 73.1667,12.5 78.8333,12.5 84.5,12.5C 84.5,12.8333 84.5,13.1667 84.5,13.5C 84.5,15.1667 84.5,16.8333 84.5,18.5C 82.8333,18.5 81.1667,18.5 79.5,18.5C 79.5,24.5 79.5,30.5 79.5,36.5C 78.8333,36.5 78.5,36.8333 78.5,37.5C 76.5,37.5 74.5,37.5 72.5,37.5C 72.5,31.1667 72.5,24.8333 72.5,18.5C 70.5,18.5 68.5,18.5 66.5,18.5C 66.5,17.1667 66.5,15.8333 66.5,14.5C 67.3382,14.1583 67.6716,13.4916 67.5,12.5 Z"/></g>
<g><path style="opacity:0.977" fill="#fcfbfb" d="M 93.5,12.5 C 96.8499,12.335 100.183,12.5017 103.5,13C 104,13.5 104.5,14 105,14.5C 107.894,13.2203 111.061,12.5536 114.5,12.5C 117.5,12.6667 120.5,12.8333 123.5,13C 124.406,14.6995 124.739,16.5328 124.5,18.5C 122.5,18.5 120.5,18.5 118.5,18.5C 118.5,24.8333 118.5,31.1667 118.5,37.5C 116.167,37.5 113.833,37.5 111.5,37.5C 111.5,31.1667 111.5,24.8333 111.5,18.5C 108.756,18.2479 106.256,18.9145 104,20.5C 98.3839,18.0312 94.5506,19.5312 92.5,25C 93.0527,26.8778 94.0527,28.3778 95.5,29.5C 98.6812,30.5905 102.015,30.5905 105.5,29.5C 106.725,35.2748 104.392,37.9415 98.5,37.5C 96.1417,37.2471 93.8083,36.9138 91.5,36.5C 89.4998,34.329 87.6665,31.9957 86,29.5C 85.502,26.5184 85.3354,23.5184 85.5,20.5C 86.4013,19.7095 87.0679,18.7095 87.5,17.5C 88.1667,17.5 88.5,17.1667 88.5,16.5C 88.5,16.1667 88.5,15.8333 88.5,15.5C 88.8333,15.5 89.1667,15.5 89.5,15.5C 90.1667,15.5 90.5,15.1667 90.5,14.5C 91.1667,14.5 91.5,14.1667 91.5,13.5C 92.4916,13.6716 93.1583,13.3382 93.5,12.5 Z"/></g>
<g><path style="opacity:0.973" fill="#fbfaf9" d="M 143.5,34.5 C 142.082,36.3079 140.082,36.9746 137.5,36.5C 137.167,36.5 136.833,36.5 136.5,36.5C 135.36,34.2198 134.193,31.8864 133,29.5C 132.503,31.8098 132.337,34.1432 132.5,36.5C 131.833,36.5 131.5,36.8333 131.5,37.5C 129.5,37.5 127.5,37.5 125.5,37.5C 125.5,29.1667 125.5,20.8333 125.5,12.5C 129.514,12.3345 133.514,12.5012 137.5,13C 144.538,17.1857 145.205,22.1857 139.5,28C 141.058,30.0519 142.392,32.2185 143.5,34.5 Z M 132.5,18.5 C 137.218,19.3189 137.552,20.9855 133.5,23.5C 132.548,21.9547 132.215,20.288 132.5,18.5 Z M 136.5,36.5 C 135.167,35.1667 133.833,35.1667 132.5,36.5C 132.337,34.1432 132.503,31.8098 133,29.5C 134.193,31.8864 135.36,34.2198 136.5,36.5 Z"/></g>
<g><path style="opacity:0.972" fill="#f9f7f6" d="M 165.5,26.5 C 165.833,28.5 166.167,30.5 166.5,32.5C 166.5,33.8333 166.5,35.1667 166.5,36.5C 164.379,36.6747 162.379,36.3414 160.5,35.5C 158.614,32.9006 155.948,31.9006 152.5,32.5C 152.5,33.8333 152.5,35.1667 152.5,36.5C 152.167,36.5 151.833,36.5 151.5,36.5C 149.5,36.5 147.5,36.5 145.5,36.5C 145.5,35.5 145.5,34.5 145.5,33.5C 145.5,32.8333 145.5,32.1667 145.5,31.5C 147.908,25.4544 150.241,19.2877 152.5,13C 155.227,12.1816 157.894,12.3483 160.5,13.5C 161.999,18.0109 163.665,22.3442 165.5,26.5 Z M 155.5,21.5 C 156.339,22.6412 157.006,23.9745 157.5,25.5C 156.635,26.5827 155.635,26.7494 154.5,26C 155.38,24.6439 155.714,23.1439 155.5,21.5 Z M 160.5,35.5 C 160.44,36.0431 160.107,36.3764 159.5,36.5C 157.166,34.0003 154.833,34.0003 152.5,36.5C 152.5,35.1667 152.5,33.8333 152.5,32.5C 155.948,31.9006 158.614,32.9006 160.5,35.5 Z"/></g>
<g><path style="opacity:0.98" fill="#faf9f8" d="M 190.5,30.5 C 189.539,32.2646 189.205,34.2646 189.5,36.5C 187.5,36.5 185.5,36.5 183.5,36.5C 183.167,36.5 182.833,36.5 182.5,36.5C 180.933,33.0333 179.099,29.6999 177,26.5C 176.502,29.8168 176.335,33.1501 176.5,36.5C 174.167,36.5 171.833,36.5 169.5,36.5C 169.5,28.5 169.5,20.5 169.5,12.5C 171.857,12.3367 174.19,12.5034 176.5,13C 179.046,16.59 181.213,20.4234 183,24.5C 183.499,20.5138 183.666,16.5138 183.5,12.5C 185.833,12.5 188.167,12.5 190.5,12.5C 190.5,18.5 190.5,24.5 190.5,30.5 Z M 182.5,36.5 C 179.832,35.5433 178.332,33.5433 178,30.5C 177.809,32.7078 177.309,34.7078 176.5,36.5C 176.335,33.1501 176.502,29.8168 177,26.5C 179.099,29.6999 180.933,33.0333 182.5,36.5 Z"/></g>
<g><path style="opacity:0.955" fill="#faf8f7" d="M 192.5,36.5 C 191.595,35.0357 191.595,33.7024 192.5,32.5C 192.5,31.1667 193.167,30.5 194.5,30.5C 196.262,30.3573 197.929,30.6906 199.5,31.5C 200.308,31.1924 200.975,30.6924 201.5,30C 196.821,27.9872 193.487,24.6539 191.5,20C 193.733,12.9577 198.4,10.6244 205.5,13C 207.637,15.1791 207.971,17.6791 206.5,20.5C 204.618,19.9067 202.785,19.2401 201,18.5C 200.5,19 200,19.5 199.5,20C 202.783,21.5605 205.617,23.7272 208,26.5C 209.432,31.8054 207.599,35.3054 202.5,37C 199.132,37.5428 195.799,37.3761 192.5,36.5 Z"/></g>
<g><path style="opacity:0.97" fill="#f8f6f5" d="M 209.5,12.5 C 214.833,12.5 220.167,12.5 225.5,12.5C 225.5,14.5 225.5,16.5 225.5,18.5C 222.482,18.3354 219.482,18.502 216.5,19C 217.833,20 217.833,21 216.5,22C 219.146,22.4974 221.813,22.6641 224.5,22.5C 224.5,24.5 224.5,26.5 224.5,28.5C 221.813,28.3359 219.146,28.5026 216.5,29C 219.492,36.1568 217.159,38.9901 209.5,37.5C 209.5,29.1667 209.5,20.8333 209.5,12.5 Z"/></g>
<g><path style="opacity:0.964" fill="#f9f7f7" d="M 227.5,12.5 C 232.511,12.3341 237.511,12.5007 242.5,13C 243.406,14.6995 243.739,16.5328 243.5,18.5C 240.5,18.5 237.5,18.5 234.5,18.5C 234.5,19.5 234.5,20.5 234.5,21.5C 236.857,21.3367 239.19,21.5034 241.5,22C 242.406,23.6995 242.739,25.5328 242.5,27.5C 239.833,27.5 237.167,27.5 234.5,27.5C 234.5,28.8333 234.5,30.1667 234.5,31.5C 237.5,31.5 240.5,31.5 243.5,31.5C 243.5,33.5 243.5,35.5 243.5,37.5C 238.167,37.5 232.833,37.5 227.5,37.5C 227.5,29.1667 227.5,20.8333 227.5,12.5 Z"/></g>
<g><path style="opacity:0.961" fill="#fbfaf9" d="M 264.5,36.5 C 264.5,36.8333 264.5,37.1667 264.5,37.5C 262.167,37.5 259.833,37.5 257.5,37.5C 257.5,36.8333 257.167,36.5 256.5,36.5C 255.36,34.2198 254.193,31.8864 253,29.5C 252.503,31.8098 252.337,34.1432 252.5,36.5C 251.508,36.3284 250.842,36.6618 250.5,37.5C 248.833,37.5 247.167,37.5 245.5,37.5C 245.5,29.1667 245.5,20.8333 245.5,12.5C 249.514,12.3345 253.514,12.5012 257.5,13C 264.491,17.2639 265.157,22.2639 259.5,28C 261.568,30.6418 263.235,33.4752 264.5,36.5 Z M 252.5,18.5 C 257.218,19.3189 257.552,20.9855 253.5,23.5C 252.548,21.9547 252.215,20.288 252.5,18.5 Z M 256.5,36.5 C 255.167,35.1667 253.833,35.1667 252.5,36.5C 252.337,34.1432 252.503,31.8098 253,29.5C 254.193,31.8864 255.36,34.2198 256.5,36.5 Z"/></g>
<g><path style="opacity:0.964" fill="#fbfaf9" d="M 288.5,19.5 C 289.924,17.4855 290.59,15.1522 290.5,12.5C 292.833,12.5 295.167,12.5 297.5,12.5C 296.322,21.0539 293.988,29.2205 290.5,37C 288.527,37.4955 286.527,37.6621 284.5,37.5C 284.5,36.8333 284.167,36.5 283.5,36.5C 282.983,32.7783 282.15,29.1117 281,25.5C 280.263,29.2066 279.429,32.8732 278.5,36.5C 277.833,36.5 277.5,36.8333 277.5,37.5C 275.5,37.5 273.5,37.5 271.5,37.5C 271.5,36.8333 271.167,36.5 270.5,36.5C 270.5,35.8333 270.167,35.5 269.5,35.5C 267.987,27.7849 266.321,20.1182 264.5,12.5C 266.924,12.1924 269.257,12.5258 271.5,13.5C 272.982,17.7392 274.148,22.0725 275,26.5C 275.721,21.6706 277.221,17.1706 279.5,13C 281.112,12.2797 282.612,12.4464 284,13.5C 285.014,17.2252 286.181,20.8919 287.5,24.5C 288.452,22.9547 288.785,21.288 288.5,19.5 Z M 283.5,36.5 C 282.442,35.3998 281.608,34.0664 281,32.5C 280.8,34.3197 279.966,35.653 278.5,36.5C 279.429,32.8732 280.263,29.2066 281,25.5C 282.15,29.1117 282.983,32.7783 283.5,36.5 Z"/></g>
<g><path style="opacity:0.986" fill="#f6f2f1" d="M 313.5,12.5 C 313.5,12.8333 313.5,13.1667 313.5,13.5C 314.323,15.9872 315.323,18.3206 316.5,20.5C 316.595,22.7857 317.262,24.7857 318.5,26.5C 319.167,29.5 319.833,32.5 320.5,35.5C 318.735,36.4614 316.735,36.7947 314.5,36.5C 314.167,36.5 313.833,36.5 313.5,36.5C 313.461,35.4168 313.127,34.4168 312.5,33.5C 310.257,32.5258 307.924,32.1924 305.5,32.5C 305.5,33.8333 305.5,35.1667 305.5,36.5C 304.833,36.5 304.167,36.5 303.5,36.5C 301.219,36.9227 299.552,36.256 298.5,34.5C 300.5,27.5 302.5,20.5 304.5,13.5C 307.391,12.5975 310.391,12.2641 313.5,12.5 Z M 308.5,21.5 C 309.339,22.6412 310.006,23.9745 310.5,25.5C 309.635,26.5827 308.635,26.7494 307.5,26C 308.38,24.6439 308.714,23.1439 308.5,21.5 Z M 313.5,36.5 C 312.107,35.7402 310.607,35.0735 309,34.5C 307.566,34.8618 306.399,35.5285 305.5,36.5C 306.399,35.5285 307.566,34.8618 309,34.5C 310.607,35.0735 312.107,35.7402 313.5,36.5 Z"/></g>
<g><path style="opacity:0.974" fill="#f8f6f4" d="M 322.5,37.5 C 322.5,37.1667 322.5,36.8333 322.5,36.5C 322.815,28.5803 322.482,20.747 321.5,13C 324.099,12.231 326.599,12.3977 329,13.5C 329.806,19.0838 329.639,24.5838 328.5,30C 331.482,30.498 334.482,30.6646 337.5,30.5C 337.5,32.8333 337.5,35.1667 337.5,37.5C 332.5,37.5 327.5,37.5 322.5,37.5 Z"/></g>
<g><path style="opacity:0.958" fill="#fcfbfa" d="M 338.5,12.5 C 340.833,12.5 343.167,12.5 345.5,12.5C 345.5,18.5 345.5,24.5 345.5,30.5C 348.167,30.5 350.833,30.5 353.5,30.5C 353.5,32.8333 353.5,35.1667 353.5,37.5C 348.5,37.5 343.5,37.5 338.5,37.5C 338.5,29.1667 338.5,20.8333 338.5,12.5 Z"/></g>
<g><path style="opacity:0.975" fill="#f7f4f2" d="M 355.5,12.5 C 360.5,12.5 365.5,12.5 370.5,12.5C 370.5,14.5 370.5,16.5 370.5,18.5C 367.833,18.5 365.167,18.5 362.5,18.5C 362.5,19.5 362.5,20.5 362.5,21.5C 364.857,21.3367 367.19,21.5034 369.5,22C 370.406,23.6995 370.739,25.5328 370.5,27.5C 367.833,27.5 365.167,27.5 362.5,27.5C 362.5,28.8333 362.5,30.1667 362.5,31.5C 365.187,31.3359 367.854,31.5026 370.5,32C 371.833,33.6667 371.833,35.3333 370.5,37C 365.249,37.8037 360.082,37.637 355,36.5C 354.2,28.4211 354.367,20.4211 355.5,12.5 Z"/></g>
<g><path style="opacity:0.965" fill="#f6f3f2" d="M 372.5,12.5 C 378.167,12.5 383.833,12.5 389.5,12.5C 389.5,14.5 389.5,16.5 389.5,18.5C 387.801,18.3398 386.134,18.5065 384.5,19C 385.641,24.7504 385.807,30.5837 385,36.5C 382.619,37.435 380.119,37.7683 377.5,37.5C 377.5,31.1667 377.5,24.8333 377.5,18.5C 375.833,18.5 374.167,18.5 372.5,18.5C 372.5,16.5 372.5,14.5 372.5,12.5 Z"/></g>
<g><path style="opacity:0.845" fill="#b1eecc" d="M 28.5,16.5 C 32.8333,16.5 37.1667,16.5 41.5,16.5C 41.5,19.5 41.5,22.5 41.5,25.5C 36.8333,25.5 32.1667,25.5 27.5,25.5C 26.8333,25.5 26.1667,25.5 25.5,25.5C 25.1667,25.5 24.8333,25.5 24.5,25.5C 24.5,23.5 24.5,21.5 24.5,19.5C 24.5,19.1667 24.5,18.8333 24.5,18.5C 25.1667,18.5 25.5,18.1667 25.5,17.5C 26.391,16.8902 27.391,16.5569 28.5,16.5 Z"/></g>
<g><path style="opacity:0.243" fill="#fcfdfb" d="M 288.5,19.5 C 287.833,18.1667 287.833,18.1667 288.5,19.5 Z"/></g>
<g><path style="opacity:0.831" fill="#a9d6b6" d="M 27.5,13.5 C 31.97,12.5139 36.6367,12.1805 41.5,12.5C 41.3284,13.4916 41.6618,14.1583 42.5,14.5C 42.5,18.5 42.5,22.5 42.5,26.5C 37.3054,26.8205 32.3054,26.4872 27.5,25.5C 32.1667,25.5 36.8333,25.5 41.5,25.5C 41.5,22.5 41.5,19.5 41.5,16.5C 37.1667,16.5 32.8333,16.5 28.5,16.5C 32.0442,14.7316 36.0442,13.8982 40.5,14C 36.1794,13.501 31.8461,13.3343 27.5,13.5 Z"/></g>
<g><path style="opacity:0.137" fill="#a7d2b2" d="M 41.5,29.5 C 41.6655,33.5138 41.4988,37.5138 41,41.5C 40.5,42 40,42.5 39.5,43C 27.8381,43.4999 16.1714,43.6665 4.5,43.5C 4.5,42.8333 4.5,42.1667 4.5,41.5C 16.1714,41.6665 27.8381,41.4999 39.5,41C 40.1378,37.0648 40.8045,33.2315 41.5,29.5 Z"/></g>
</svg>
